<?xml version="1.0" encoding="UTF-8"?>
<svg width="512px" height="512px" viewBox="0 0 512 512" version="1.1" xmlns="http://www.w3.org/2000/svg" xmlns:xlink="http://www.w3.org/1999/xlink">
    <title>icon</title>
    <defs>
        <filter x="-4.2%" y="-8.5%" width="108.4%" height="116.9%" filterUnits="objectBoundingBox" id="filter-1">
            <feOffset dx="0" dy="10" in="SourceAlpha" result="shadowOffsetOuter1"></feOffset>
            <feColorMatrix values="0 0 0 0 0   0 0 0 0 0   0 0 0 0 0  0 0 0 0.08 0" type="matrix" in="shadowOffsetOuter1" result="shadowMatrixOuter1"></feColorMatrix>
            <feMerge>
                <feMergeNode in="shadowMatrixOuter1"></feMergeNode>
                <feMergeNode in="SourceGraphic"></feMergeNode>
            </feMerge>
        </filter>
        <path d="M444.499387,264.071326 L444.73845,270.592575 L410.566328,270.592575 L411.046952,261.897577 C411.313984,247.405913 418.692658,235.571055 432.580112,226.393001 C444.732666,217.214948 450.053719,208.51995 449.089511,200.308007 C447.591887,190.163842 442.243041,184.608705 433.042972,183.642594 C420.826395,183.642594 412.643797,192.337592 408.215395,209.727588 L377.221677,203.20634 C388.106764,169.875513 407.658057,153.693156 436.961373,154.659267 C461.429774,156.108433 476.921202,169.633986 483.523366,195.235925 C487.29965,211.176755 480.857652,225.42689 463.027177,237.986332 C448.94915,247.164386 442.557463,255.859384 444.499387,264.071326 Z M447.653398,312.951475 L407.831859,312.43672 L409.040984,279.447914 L446.048487,279.620649 L447.653398,312.951475 Z" id="path-2"></path>
        <filter x="-4.2%" y="-2.8%" width="114.9%" height="111.4%" filterUnits="objectBoundingBox" id="filter-3">
            <feOffset dx="7" dy="9" in="SourceAlpha" result="shadowOffsetOuter1"></feOffset>
            <feColorMatrix values="0 0 0 0 0   0 0 0 0 0   0 0 0 0 0  0 0 0 0.08 0" type="matrix" in="shadowOffsetOuter1"></feColorMatrix>
        </filter>
    </defs>
    <g id="icon" stroke="none" stroke-width="1" fill="none" fill-rule="evenodd">
        <rect fill="#EEEEEE" x="0" y="0" width="512" height="512"></rect>
        <g id="能不能好好说话" filter="url(#filter-1)" transform="translate(17.000000, 200.000000)" fill="#111111" fill-rule="nonzero">
            <path d="M104.631148,3.76666667 L114.528689,16.4791667 C104.788251,21.1875 93.9480874,25.8958333 82.0081967,30.6041667 L82.0081967,35.3125 C82.0081967,38.7652778 83.7363388,40.4916667 87.192623,40.4916667 L92.3770492,40.4916667 C95.204918,40.4916667 96.9330601,38.9222222 97.5614754,35.7833333 C97.5614754,34.8416667 97.8756831,33.4291667 98.5040984,31.5458333 C98.818306,28.7208333 99.1325137,26.5236111 99.4467213,24.9541667 C104.788251,26.8375 109.972678,28.4069444 115,29.6625 C114.685792,32.8013889 114.057377,36.725 113.114754,41.4333333 C112.800546,42.6888889 112.486339,43.7875 112.172131,44.7291667 C110.286885,51.9486111 104.945355,55.5583333 96.147541,55.5583333 L80.1229508,55.5583333 C69.1256831,55.8722222 63.784153,50.0652778 64.0983607,38.1375 L64.0983607,37.1958333 L52.7868852,44.2583333 C52.4726776,43.9444444 52.1584699,43.4736111 51.8442623,42.8458333 C51.5300546,42.2180556 50.7445355,41.1194444 49.4877049,39.55 C39.1188525,39.55 28.5928962,40.0208333 17.9098361,40.9625 C14.1393443,40.9625 10.0546448,41.4333333 5.6557377,42.375 L0,27.7791667 C0.31420765,27.7791667 0.628415301,27.6222222 0.942622951,27.3083333 C4.3989071,24.7972222 7.06967213,22.4430556 8.95491803,20.2458333 C14.9248634,13.3402778 19.795082,6.59166667 23.5655738,0 L42.4180328,5.17916667 C41.4754098,6.12083333 40.0614754,7.53333333 38.1762295,9.41666667 C31.5778689,16.6361111 26.3934426,22.1291667 22.6229508,25.8958333 C28.2786885,25.8958333 34.2486339,25.7388889 40.5327869,25.425 C38.647541,22.6 36.6051913,19.6180556 34.4057377,16.4791667 L46.6598361,9.41666667 C53.2581967,17.2638889 59.0710383,24.7972222 64.0983607,32.0166667 L64.0983607,2.35416667 L82.0081967,2.35416667 L82.0081967,14.5958333 C87.0355191,12.3986111 94.5765027,8.78888889 104.631148,3.76666667 Z M21.6803279,113 L5.6557377,113 L5.6557377,45.2 L58.9139344,45.2 L58.9139344,98.4041667 C58.9139344,107.193056 54.6721311,111.744444 46.1885246,112.058333 C40.5327869,112.686111 35.5054645,113 31.1065574,113 C30.7923497,112.058333 30.4781421,110.802778 30.1639344,109.233333 C29.5355191,105.152778 28.75,101.7 27.807377,98.875 C30.0068306,99.1888889 33.3060109,99.3458333 37.704918,99.3458333 C40.8469945,99.3458333 42.4180328,97.7763889 42.4180328,94.6375 L42.4180328,94.1666667 L21.6803279,94.1666667 L21.6803279,113 Z M104.159836,58.3833333 L114.057377,72.0375 C102.745902,77.3736111 92.0628415,82.0819444 82.0081967,86.1625 L82.0081967,92.2833333 C82.0081967,95.7361111 83.7363388,97.4625 87.192623,97.4625 L92.3770492,97.4625 C95.8333333,97.4625 97.7185792,95.8930556 98.0327869,92.7541667 C98.6612022,89.3013889 99.1325137,85.2208333 99.4467213,80.5125 C100.703552,80.8263889 102.588798,81.4541667 105.102459,82.3958333 C109.501366,83.6513889 112.800546,84.75 115,85.6916667 C114.057377,92.5972222 113.114754,97.7763889 112.172131,101.229167 C110.915301,108.448611 105.730874,112.058333 96.6188525,112.058333 L80.5942623,112.058333 C69.5969945,112.058333 64.0983607,106.565278 64.0983607,95.5791667 L64.0983607,58.8541667 L82.0081967,58.8541667 L82.0081967,69.2125 C87.0355191,67.0152778 93.9480874,63.5625 102.745902,58.8541667 C102.431694,59.1680556 102.903005,59.0111111 104.159836,58.3833333 Z M21.6803279,58.8541667 L21.6803279,64.0333333 L42.4180328,64.0333333 L42.4180328,58.8541667 L21.6803279,58.8541667 Z M21.6803279,76.275 L21.6803279,81.4541667 L42.4180328,81.4541667 L42.4180328,76.275 L21.6803279,76.275 Z" id="形状"></path>
            <path d="M126.186992,9 L233.699187,9 L233.699187,27.9189189 L194.560976,27.9189189 C190.788618,35.1711712 186.544715,41.9504505 181.829268,48.2567568 L189.373984,48.2567568 L189.373984,59.1351351 L201.634146,46.8378378 C206.97832,51.2522523 214.680217,57.4009009 224.739837,65.2837838 C230.084011,69.3828829 234.170732,72.536036 237,74.7432432 L221.910569,90.8243243 C207.449864,76.6351351 196.604336,66.7027027 189.373984,61.027027 L189.373984,114 L168.154472,114 L168.154472,64.8108108 C159.03794,74.5855856 147.406504,83.8873874 133.260163,92.7162162 C132.631436,92.0855856 131.845528,90.981982 130.902439,89.4054054 C126.815718,82.7837838 123.514905,77.8963964 121,74.7432432 C144.577236,61.1846847 161.238482,45.5765766 170.98374,27.9189189 L126.186992,27.9189189 L126.186992,9 Z" id="路径"></path>
            <path d="M345.631148,3.76666667 L355.528689,16.4791667 C345.788251,21.1875 334.948087,25.8958333 323.008197,30.6041667 L323.008197,35.3125 C323.008197,38.7652778 324.736339,40.4916667 328.192623,40.4916667 L333.377049,40.4916667 C336.204918,40.4916667 337.93306,38.9222222 338.561475,35.7833333 C338.561475,34.8416667 338.875683,33.4291667 339.504098,31.5458333 C339.818306,28.7208333 340.132514,26.5236111 340.446721,24.9541667 C345.788251,26.8375 350.972678,28.4069444 356,29.6625 C355.685792,32.8013889 355.057377,36.725 354.114754,41.4333333 C353.800546,42.6888889 353.486339,43.7875 353.172131,44.7291667 C351.286885,51.9486111 345.945355,55.5583333 337.147541,55.5583333 L321.122951,55.5583333 C310.125683,55.8722222 304.784153,50.0652778 305.098361,38.1375 L305.098361,37.1958333 L293.786885,44.2583333 C293.472678,43.9444444 293.15847,43.4736111 292.844262,42.8458333 C292.530055,42.2180556 291.744536,41.1194444 290.487705,39.55 C280.118852,39.55 269.592896,40.0208333 258.909836,40.9625 C255.139344,40.9625 251.054645,41.4333333 246.655738,42.375 L241,27.7791667 C241.314208,27.7791667 241.628415,27.6222222 241.942623,27.3083333 C245.398907,24.7972222 248.069672,22.4430556 249.954918,20.2458333 C255.924863,13.3402778 260.795082,6.59166667 264.565574,0 L283.418033,5.17916667 C282.47541,6.12083333 281.061475,7.53333333 279.17623,9.41666667 C272.577869,16.6361111 267.393443,22.1291667 263.622951,25.8958333 C269.278689,25.8958333 275.248634,25.7388889 281.532787,25.425 C279.647541,22.6 277.605191,19.6180556 275.405738,16.4791667 L287.659836,9.41666667 C294.258197,17.2638889 300.071038,24.7972222 305.098361,32.0166667 L305.098361,2.35416667 L323.008197,2.35416667 L323.008197,14.5958333 C328.035519,12.3986111 335.576503,8.78888889 345.631148,3.76666667 Z M262.680328,113 L246.655738,113 L246.655738,45.2 L299.913934,45.2 L299.913934,98.4041667 C299.913934,107.193056 295.672131,111.744444 287.188525,112.058333 C281.532787,112.686111 276.505464,113 272.106557,113 C271.79235,112.058333 271.478142,110.802778 271.163934,109.233333 C270.535519,105.152778 269.75,101.7 268.807377,98.875 C271.006831,99.1888889 274.306011,99.3458333 278.704918,99.3458333 C281.846995,99.3458333 283.418033,97.7763889 283.418033,94.6375 L283.418033,94.1666667 L262.680328,94.1666667 L262.680328,113 Z M345.159836,58.3833333 L355.057377,72.0375 C343.745902,77.3736111 333.062842,82.0819444 323.008197,86.1625 L323.008197,92.2833333 C323.008197,95.7361111 324.736339,97.4625 328.192623,97.4625 L333.377049,97.4625 C336.833333,97.4625 338.718579,95.8930556 339.032787,92.7541667 C339.661202,89.3013889 340.132514,85.2208333 340.446721,80.5125 C341.703552,80.8263889 343.588798,81.4541667 346.102459,82.3958333 C350.501366,83.6513889 353.800546,84.75 356,85.6916667 C355.057377,92.5972222 354.114754,97.7763889 353.172131,101.229167 C351.915301,108.448611 346.730874,112.058333 337.618852,112.058333 L321.594262,112.058333 C310.596995,112.058333 305.098361,106.565278 305.098361,95.5791667 L305.098361,58.8541667 L323.008197,58.8541667 L323.008197,69.2125 C328.035519,67.0152778 334.948087,63.5625 343.745902,58.8541667 C343.431694,59.1680556 343.903005,59.0111111 345.159836,58.3833333 Z M262.680328,58.8541667 L262.680328,64.0333333 L283.418033,64.0333333 L283.418033,58.8541667 L262.680328,58.8541667 Z M262.680328,76.275 L262.680328,81.4541667 L283.418033,81.4541667 L283.418033,76.275 L262.680328,76.275 Z" id="形状"></path>
            <path d="M2.46938776,141.775 L14.2040816,141.775 C14.5170068,139.577778 14.829932,136.281944 15.1428571,131.8875 C15.7687075,127.493056 16.0816327,124.197222 16.0816327,122 L35.3265306,123.4125 C34.3877551,129.376389 33.4489796,135.497222 32.5102041,141.775 L56.4489796,141.775 C55.5102041,172.222222 51.9115646,192.781944 45.6530612,203.454167 C50.3469388,207.534722 55.0408163,211.772222 59.7346939,216.166667 C63.1768707,216.166667 66.7755102,216.166667 70.5306122,216.166667 C75.8503401,216.480556 78.3537415,214.283333 78.0408163,209.575 L78.0408163,189.329167 L55.9795918,189.329167 L55.9795918,170.966667 L78.0408163,170.966667 L78.0408163,162.020833 L92.122449,144.6 L60.2040816,144.6 L60.2040816,126.708333 L115.122449,126.708333 L115.122449,144.6 L97.2857143,166.729167 L97.2857143,170.966667 L117,170.966667 L117,189.329167 L97.2857143,189.329167 L97.2857143,216.166667 C97.5986395,227.466667 91.6530612,233.273611 79.4489796,233.5875 C73.1904762,233.5875 67.4013605,233.5875 62.0816327,233.5875 C60.829932,226.681944 59.7346939,221.502778 58.7959184,218.05 L47.0612245,229.820833 C43.3061224,226.054167 39.3945578,222.2875 35.3265306,218.520833 C29.6938776,223.543056 22.9659864,229.036111 15.1428571,235 C12.6394558,232.175 8.2585034,227.623611 2,221.345833 C10.4489796,216.009722 17.1768707,210.830556 22.1836735,205.808333 C16.5510204,200.472222 10.9183673,195.293056 5.28571429,190.270833 C7.78911565,180.854167 9.97959184,170.495833 11.8571429,159.195833 L2.46938776,159.195833 L2.46938776,141.775 Z M24.0612245,185.5625 C26.877551,187.445833 29.3809524,189.486111 31.5714286,191.683333 C34.7006803,183.522222 36.7346939,172.693056 37.6734694,159.195833 L29.6938776,159.195833 C27.8163265,168.6125 25.9387755,177.401389 24.0612245,185.5625 Z" id="形状"></path>
            <path d="M123.469388,141.775 L135.204082,141.775 C135.517007,139.577778 135.829932,136.281944 136.142857,131.8875 C136.768707,127.493056 137.081633,124.197222 137.081633,122 L156.326531,123.4125 C155.387755,129.376389 154.44898,135.497222 153.510204,141.775 L177.44898,141.775 C176.510204,172.222222 172.911565,192.781944 166.653061,203.454167 C171.346939,207.534722 176.040816,211.772222 180.734694,216.166667 C184.176871,216.166667 187.77551,216.166667 191.530612,216.166667 C196.85034,216.480556 199.353741,214.283333 199.040816,209.575 L199.040816,189.329167 L176.979592,189.329167 L176.979592,170.966667 L199.040816,170.966667 L199.040816,162.020833 L213.122449,144.6 L181.204082,144.6 L181.204082,126.708333 L236.122449,126.708333 L236.122449,144.6 L218.285714,166.729167 L218.285714,170.966667 L238,170.966667 L238,189.329167 L218.285714,189.329167 L218.285714,216.166667 C218.598639,227.466667 212.653061,233.273611 200.44898,233.5875 C194.190476,233.5875 188.401361,233.5875 183.081633,233.5875 C181.829932,226.681944 180.734694,221.502778 179.795918,218.05 L168.061224,229.820833 C164.306122,226.054167 160.394558,222.2875 156.326531,218.520833 C150.693878,223.543056 143.965986,229.036111 136.142857,235 C133.639456,232.175 129.258503,227.623611 123,221.345833 C131.44898,216.009722 138.176871,210.830556 143.183673,205.808333 C137.55102,200.472222 131.918367,195.293056 126.285714,190.270833 C128.789116,180.854167 130.979592,170.495833 132.857143,159.195833 L123.469388,159.195833 L123.469388,141.775 Z M145.061224,185.5625 C147.877551,187.445833 150.380952,189.486111 152.571429,191.683333 C155.70068,183.522222 157.734694,172.693056 158.673469,159.195833 L150.693878,159.195833 C148.816327,168.6125 146.938776,177.401389 145.061224,185.5625 Z" id="形状"></path>
            <path d="M302.673469,121 C304.55102,123.827869 307.054422,127.755464 310.183673,132.782787 C311.748299,135.296448 312.843537,137.181694 313.469388,138.438525 L304.081633,142.209016 L320.040816,142.209016 C323.482993,135.610656 326.768707,128.540984 329.897959,121 L349.612245,127.127049 C345.857143,132.468579 342.414966,137.495902 339.285714,142.209016 L351.020408,142.209016 L351.020408,191.696721 L336,191.696721 L336,211.963115 C336,214.162568 336.938776,215.262295 338.816327,215.262295 L340.22449,215.262295 C342.102041,215.576503 343.197279,214.005464 343.510204,210.54918 C344.136054,206.464481 344.44898,201.90847 344.44898,196.881148 C346.013605,197.509563 348.517007,198.452186 351.959184,199.709016 C355.088435,200.965847 357.435374,201.90847 359,202.536885 C359,203.479508 358.843537,204.893443 358.530612,206.778689 C357.904762,213.062842 357.278912,217.775956 356.653061,220.918033 C355.088435,228.459016 349.612245,232.229508 340.22449,232.229508 L334.122449,232.229508 C322.857143,232.543716 317.537415,227.673497 318.163265,217.618852 L318.163265,191.696721 L311.122449,191.696721 C311.122449,192.953552 311.122449,194.367486 311.122449,195.938525 C312.061224,211.334699 303.92517,224.688525 286.714286,236 C281.707483,230.344262 277.326531,225.631148 273.571429,221.860656 C287.027211,213.691257 293.442177,205.20765 292.816327,196.409836 C292.816327,195.153005 292.972789,193.581967 293.285714,191.696721 L281.55102,191.696721 L281.55102,142.209016 L293.755102,142.209016 C290,136.239071 286.870748,131.054645 284.367347,126.655738 L302.673469,121 Z M279.673469,188.868852 C280.29932,190.439891 280.92517,192.796448 281.55102,195.938525 C282.176871,197.509563 283.272109,201.122951 284.836735,206.778689 C279.517007,211.806011 274.040816,216.990437 268.408163,222.331967 C265.278912,225.474044 262.619048,228.459016 260.428571,231.286885 L249.632653,217.618852 C252.761905,213.534153 254.326531,209.135246 254.326531,204.422131 L254.326531,175.672131 L244,175.672131 L244,157.762295 L272.163265,157.762295 L272.163265,196.881148 C272.789116,195.938525 273.884354,194.681694 275.44898,193.110656 C277.326531,191.22541 278.734694,189.811475 279.673469,188.868852 Z M299.857143,175.20082 L332.714286,175.20082 L332.714286,158.704918 L299.857143,158.704918 L299.857143,175.20082 Z M263.714286,121 C268.721088,127.284153 273.884354,134.510929 279.204082,142.680328 L262.306122,153.04918 C257.92517,145.193989 253.231293,137.495902 248.22449,129.954918 L263.714286,121 Z" id="形状"></path>
            <path d="M402,128.567901 C427.958848,127.942387 451.415638,126.847737 472.37037,125.283951 L474.716049,141.234568 C465.958848,142.17284 457.045267,142.798354 447.975309,143.111111 L447.975309,153.901235 L478,153.901235 L478,170.320988 L447.975309,170.320988 L447.975309,182.049383 L472.839506,182.049383 L472.839506,234.123457 L454.074074,234.123457 L454.074074,228.024691 L423.111111,228.024691 L423.111111,234.123457 L404.345679,234.123457 L404.345679,182.049383 L429.209877,182.049383 L429.209877,170.320988 L398.716049,170.320988 L398.716049,153.901235 L429.209877,153.901235 L429.209877,144.049383 C421.390947,144.674897 413.259259,144.987654 404.814815,144.987654 C404.502058,143.423868 404.032922,140.296296 403.407407,135.604938 C402.781893,132.477366 402.312757,130.131687 402,128.567901 Z M399.654321,194.716049 C399.967078,196.90535 400.592593,200.502058 401.530864,205.506173 C402.469136,209.884774 403.09465,212.855967 403.407407,214.419753 C391.835391,224.427984 384.016461,231.621399 379.950617,236 L368.222222,221.45679 C371.349794,218.329218 372.91358,214.106996 372.91358,208.790123 L372.91358,177.358025 L364,177.358025 L364,159.530864 L391.209877,159.530864 L391.209877,204.098765 C391.835391,203.473251 393.242798,201.909465 395.432099,199.407407 C397.621399,197.218107 399.028807,195.654321 399.654321,194.716049 Z M384.17284,122 C386.674897,125.440329 390.271605,130.444444 394.962963,137.012346 C397.152263,140.452675 398.872428,142.954733 400.123457,144.518519 L383.234568,154.839506 C378.54321,147.020576 373.539095,139.045267 368.222222,130.91358 L384.17284,122 Z M423.111111,197.530864 L423.111111,213.012346 L454.074074,213.012346 L454.074074,197.530864 L423.111111,197.530864 Z" id="形状"></path>
        </g>
        <g id="nbnhhsh" opacity="0.25" transform="translate(17.000000, 76.000000)" fill="#373737" fill-rule="nonzero">
            <path d="M0,26.2450593 L16.0722892,26.2450593 L16.0722892,31.3636364 C19.0538153,29.2424242 22.1983936,27.6515152 25.5060241,26.5909091 C28.8136546,25.530303 32.1445783,25 35.4987952,25 C42.6730924,25 48.2168675,26.9598155 52.1301205,30.8794466 C56.0433735,34.7990777 58,40.0790514 58,46.7193676 L58,95 L42.0674699,95 L42.0674699,47.826087 C42.0674699,44.4137022 41.3220884,42.0158103 39.8313253,40.6324111 C38.3405622,39.2490119 36.2907631,38.5573123 33.6819277,38.5573123 C31.2594378,38.5573123 28.9767068,38.9953887 26.8337349,39.8715415 C24.6907631,40.7476943 22.8273092,41.900527 21.2433735,43.3300395 C19.6594378,44.759552 18.4016064,46.4196311 17.4698795,48.3102767 C16.5381526,50.2009223 16.0722892,52.1607378 16.0722892,54.1897233 L16.0722892,95 L0,95 L0,26.2450593 Z" id="路径"></path>
            <path d="M70,0 L85.7603687,0 L85.7603687,29.869754 C90.5529954,26.1649783 95.483871,24.3125904 100.552995,24.3125904 C105.437788,24.3125904 109.723502,25.2619392 113.410138,27.1606368 C117.096774,29.0593343 120.16129,31.6295224 122.603687,34.8712012 C125.046083,38.1128799 126.889401,41.910275 128.133641,46.2633864 C129.37788,50.6164978 130,55.2937771 130,60.2952243 C130,65.2040521 129.354839,69.8350217 128.064516,74.1881331 C126.774194,78.5412446 124.884793,82.3386397 122.396313,85.5803184 C119.907834,88.8219971 116.820276,91.3690304 113.133641,93.2214182 C109.447005,95.0738061 105.16129,96 100.276498,96 C97.7880184,96 95.2764977,95.536903 92.7419355,94.6107091 C90.2073733,93.6845152 87.8801843,92.3878437 85.7603687,90.7206946 L85.7603687,94.6107091 L70,94.6107091 L70,0 Z M85.7603687,60.2952243 C85.7603687,63.3516643 86.0829493,66.2460203 86.7281106,68.9782923 C87.3732719,71.7105644 88.2949309,74.0723589 89.4930876,76.0636758 C90.6912442,78.0549928 92.1658986,79.6295224 93.9170507,80.7872648 C95.6682028,81.9450072 97.6497696,82.5238784 99.8617512,82.5238784 C102.165899,82.5238784 104.193548,81.9450072 105.9447,80.7872648 C107.695853,79.6295224 109.193548,78.0549928 110.437788,76.0636758 C111.682028,74.0723589 112.626728,71.7105644 113.271889,68.9782923 C113.917051,66.2460203 114.239631,63.3516643 114.239631,60.2952243 C114.239631,57.2387844 113.917051,54.3444284 113.271889,51.6121563 C112.626728,48.8798842 111.682028,46.4949349 110.437788,44.4573082 C109.193548,42.4196816 107.695853,40.8219971 105.9447,39.6642547 C104.193548,38.5065123 102.165899,37.9276411 99.8617512,37.9276411 C97.6497696,37.9276411 95.6912442,38.4833575 93.9861751,39.5947902 C92.281106,40.7062229 90.8294931,42.211288 89.6313364,44.1099855 C88.4331797,46.0086831 87.5115207,48.2547033 86.8663594,50.8480463 C86.2211982,53.4413893 85.8525346,56.2199711 85.7603687,59.1837916 L85.7603687,60.2952243 Z" id="形状"></path>
            <path d="M142,26.2450593 L158.072289,26.2450593 L158.072289,31.3636364 C161.053815,29.2424242 164.198394,27.6515152 167.506024,26.5909091 C170.813655,25.530303 174.144578,25 177.498795,25 C184.673092,25 190.216867,26.9598155 194.13012,30.8794466 C198.043373,34.7990777 200,40.0790514 200,46.7193676 L200,95 L184.06747,95 L184.06747,47.826087 C184.06747,44.4137022 183.322088,42.0158103 181.831325,40.6324111 C180.340562,39.2490119 178.290763,38.5573123 175.681928,38.5573123 C173.259438,38.5573123 170.976707,38.9953887 168.833735,39.8715415 C166.690763,40.7476943 164.827309,41.900527 163.243373,43.3300395 C161.659438,44.759552 160.401606,46.4196311 159.46988,48.3102767 C158.538153,50.2009223 158.072289,52.1607378 158.072289,54.1897233 L158.072289,95 L142,95 L142,26.2450593 Z" id="路径"></path>
            <path d="M228.033654,0 L228.033654,29.5741557 C230.543269,27.7141459 233.331731,26.3888889 236.399038,25.5983847 C239.466346,24.8078806 242.626603,24.4126285 245.879808,24.4126285 C249.411859,24.4126285 252.641827,24.9706314 255.569712,26.0866373 C258.497596,27.2026432 261.030449,28.7371512 263.168269,30.6901615 C265.30609,32.6431718 266.979167,34.968184 268.1875,37.6651982 C269.395833,40.3622124 270,43.2452276 270,46.3142438 L270,95 L254.105769,95 L254.105769,47.9882526 C254.105769,44.3612335 253.036859,41.80372 250.899038,40.3157122 C248.761218,38.8277044 246.344551,38.0837004 243.649038,38.0837004 C241.790064,38.0837004 239.93109,38.4789525 238.072115,39.2694567 C236.213141,40.0599608 234.540064,41.1527166 233.052885,42.5477239 C231.565705,43.9427313 230.357372,45.5702398 229.427885,47.4302496 C228.498397,49.2902594 228.033654,51.2897699 228.033654,53.4287812 L228.033654,95 L212,95 L212,0 L228.033654,0 Z" id="路径"></path>
            <path d="M299.033654,0 L299.033654,29.5741557 C301.543269,27.7141459 304.331731,26.3888889 307.399038,25.5983847 C310.466346,24.8078806 313.626603,24.4126285 316.879808,24.4126285 C320.411859,24.4126285 323.641827,24.9706314 326.569712,26.0866373 C329.497596,27.2026432 332.030449,28.7371512 334.168269,30.6901615 C336.30609,32.6431718 337.979167,34.968184 339.1875,37.6651982 C340.395833,40.3622124 341,43.2452276 341,46.3142438 L341,95 L325.105769,95 L325.105769,47.9882526 C325.105769,44.3612335 324.036859,41.80372 321.899038,40.3157122 C319.761218,38.8277044 317.344551,38.0837004 314.649038,38.0837004 C312.790064,38.0837004 310.93109,38.4789525 309.072115,39.2694567 C307.213141,40.0599608 305.540064,41.1527166 304.052885,42.5477239 C302.565705,43.9427313 301.357372,45.5702398 300.427885,47.4302496 C299.498397,49.2902594 299.033654,51.2897699 299.033654,53.4287812 L299.033654,95 L283,95 L283,0 L299.033654,0 Z" id="路径"></path>
            <path d="M367.2457,69.576699 C367.432432,74.3300971 368.62285,77.6854369 370.816953,79.6427184 C373.011057,81.6 375.742015,82.5786408 379.009828,82.5786408 C380.410319,82.5786408 381.857494,82.4621359 383.351351,82.2291262 C384.845209,81.9961165 386.222359,81.576699 387.482801,80.9708738 C388.743243,80.3650485 389.793612,79.5728155 390.633907,78.5941748 C391.474201,77.615534 391.894349,76.3805825 391.894349,74.8893204 C391.894349,73.6776699 391.497543,72.6058252 390.703931,71.6737864 C389.910319,70.7417476 388.859951,69.8796117 387.552826,69.0873786 C386.2457,68.2951456 384.728501,67.5961165 383.001229,66.9902913 C381.273956,66.384466 379.476658,65.7553398 377.609337,65.1029126 C374.714988,64.0776699 371.820639,63.0058252 368.92629,61.8873786 C366.031941,60.768932 363.441032,59.3941748 361.153563,57.7631068 C358.866093,56.1320388 356.998771,54.1514563 355.551597,51.8213592 C354.104423,49.4912621 353.380835,46.6485437 353.380835,43.2932039 C353.380835,40.031068 354.081081,37.1883495 355.481572,34.7650485 C356.882064,32.3417476 358.772727,30.3378641 361.153563,28.7533981 C363.534398,27.168932 366.265356,25.9805825 369.346437,25.1883495 C372.427518,24.3961165 375.648649,24 379.009828,24 C382.744472,24 386.2457,24.4427184 389.513514,25.3281553 C392.781327,26.2135922 395.605651,27.5883495 397.986486,29.4524272 C400.367322,31.3165049 402.281327,33.6932039 403.728501,36.5825243 C405.175676,39.4718447 405.992629,42.8737864 406.179361,46.7883495 C405.992629,46.7883495 405.595823,46.7883495 404.988943,46.7883495 C404.382064,46.7883495 403.751843,46.7650485 403.09828,46.7184466 C402.444717,46.6718447 401.837838,46.6485437 401.277641,46.6485437 C400.717445,46.6485437 400.297297,46.6485437 400.017199,46.6485437 L390.213759,46.6485437 C389.746929,43.1067961 388.463145,40.7300971 386.362408,39.5184466 C384.261671,38.3067961 381.810811,37.7009709 379.009828,37.7009709 C375.928747,37.7009709 373.571253,38.2135922 371.937346,39.238835 C370.30344,40.2640777 369.486486,41.6621359 369.486486,43.4330097 C369.486486,45.576699 370.863636,47.3475728 373.617936,48.7456311 C376.372236,50.1436893 379.570025,51.4951456 383.211302,52.8 L383.911548,53.0796117 C386.712531,54.1048544 389.560197,55.176699 392.454545,56.2951456 C395.348894,57.4135922 397.939803,58.7650485 400.227273,60.3495146 C402.514742,61.9339806 404.382064,63.8213592 405.829238,66.0116505 C407.276413,68.2019417 408,70.8349515 408,73.9106796 C408,77.8252427 407.22973,81.1805825 405.689189,83.976699 C404.148649,86.7728155 402.047912,89.0563107 399.386978,90.8271845 C396.726044,92.5980583 393.644963,93.9029126 390.143735,94.7417476 C386.642506,95.5805825 382.931204,96 379.009828,96 C375.275184,96 371.727273,95.4640777 368.366093,94.392233 C365.004914,93.3203883 362.063882,91.6893204 359.542998,89.4990291 C357.022113,87.3087379 354.9914,84.5592233 353.45086,81.2504854 C351.910319,77.9417476 351.093366,74.0504854 351,69.576699 L367.2457,69.576699 Z" id="路径"></path>
            <path d="M435.033654,0 L435.033654,29.5741557 C437.543269,27.7141459 440.331731,26.3888889 443.399038,25.5983847 C446.466346,24.8078806 449.626603,24.4126285 452.879808,24.4126285 C456.411859,24.4126285 459.641827,24.9706314 462.569712,26.0866373 C465.497596,27.2026432 468.030449,28.7371512 470.168269,30.6901615 C472.30609,32.6431718 473.979167,34.968184 475.1875,37.6651982 C476.395833,40.3622124 477,43.2452276 477,46.3142438 L477,95 L461.105769,95 L461.105769,47.9882526 C461.105769,44.3612335 460.036859,41.80372 457.899038,40.3157122 C455.761218,38.8277044 453.344551,38.0837004 450.649038,38.0837004 C448.790064,38.0837004 446.93109,38.4789525 445.072115,39.2694567 C443.213141,40.0599608 441.540064,41.1527166 440.052885,42.5477239 C438.565705,43.9427313 437.357372,45.5702398 436.427885,47.4302496 C435.498397,49.2902594 435.033654,51.2897699 435.033654,53.4287812 L435.033654,95 L419,95 L419,0 L435.033654,0 Z" id="路径"></path>
        </g>
        <g id="形状" fill-rule="nonzero" transform="translate(430.892226, 233.784960) rotate(20.000000) translate(-430.892226, -233.784960) ">
            <use fill="black" fill-opacity="1" filter="url(#filter-3)" xlink:href="#path-2"></use>
            <use fill="#111111" xlink:href="#path-2"></use>
        </g>
    </g>
</svg>